Coordinates
version=1
nRows=21
nColumns=33
inDegrees=yes

Units are S.I. units (second, meters, Newtons, ...)
Angles are in degrees.

endheader
time	ground_thorax_rot_x	ground_thorax_rot_y	ground_thorax_rot_z	ground_thorax_tx	ground_thorax_ty	ground_thorax_tz	clav_prot_r	clav_elev_r	scapula_abduction_r	scapula_elevation_r	scapula_upward_rot_r	scapula_winging_r	shoulder_elv_r	plane_of_elev_r	axial_rot_r	elbow_flexion_r	pro_sup_r	wrist_flex_r	wrist_dev_r	clav_prot_l	clav_elev_l	scapula_abduction_l	scapula_elevation_l	scapula_upward_rot_l	scapula_winging_l	shoulder_elv_l	plane_of_elev_l	axial_rot_l	elbow_flexion_l	pro_sup_l	wrist_flex_l	wrist_dev_l
     10.92000000	    -38.18393195	     -5.64928353	     14.63162552	   -207.28063578	    840.21970031	      6.05680876	      5.49000707	    -45.00000000	     39.85475297	    -45.00000000	    -24.92721873	  -1541.75699660	  -2627.93790646	    147.04998122	   -116.09107779	   1091.43030989	      6.53556702	     19.09817907	      9.05724752	     16.00802164	     37.88909626	    -39.81684464	    -45.00000000	    -44.75982702	   2245.57948696	  -4246.63950719	     24.88572714	    -34.26592800	    730.27072669	     -1.75482918	      7.33440151	    -20.19398293
     10.93000000	    -38.20525697	     -5.64935212	     14.58204670	   -209.31530181	    841.33621705	      6.10218961	      5.55627762	    -45.00000000	     39.74060217	    -45.00000000	    -25.43673889	  -1541.86924928	  -2627.79238628	    146.98102438	   -116.00259531	   1091.51318635	      6.16826778	     19.13130437	      8.94183344	     15.96810835	     37.78484321	    -39.70993132	    -45.00000000	    -45.00000000	   2245.67457791	  -4246.59400567	     24.84166962	    -34.47477154	    730.26279995	     -1.85533334	      7.20487685	    -20.17858731
     10.94000000	    -38.23977149	     -5.53982258	     14.47579248	   -211.30515224	    842.38938975	      6.14666708	      5.58709411	    -45.00000000	     39.58552011	    -45.00000000	    -25.89730194	  -1541.94305076	  -2627.70645764	    146.95740299	   -115.97526631	   1091.50968157	      5.86184199	     19.14999728	      8.71069870	     15.85467730	     37.78072654	    -39.57514074	    -45.00000000	    -45.00000000	   2245.66611594	  -4246.42513587	     24.64968836	    -34.62663316	    730.30874844	     -1.85202578	      7.23245573	    -20.16471714
     10.95000000	    -38.25721110	     -5.51439541	     14.40719116	   -213.25330165	    843.37912330	      6.19072297	      5.61530769	    -45.00000000	     39.53154343	    -45.00000000	    -26.28850554	  -1542.04016408	  -2627.59936376	    146.96490926	   -115.89524624	   1091.51799423	      5.69938339	     19.16062293	      8.64771558	     15.77934903	     37.76361954	    -39.46545109	    -45.00000000	    -45.00000000	   2245.85167829	  -4246.45926592	     24.61190793	    -35.15671911	    730.31008217	     -1.72388496	      7.04544481	    -20.16778903
     10.96000000	    -38.20212191	     -5.53194372	     14.32408031	   -215.16194853	    844.30556938	      6.23548684	      5.54863311	    -45.00000000	     39.62186612	    -45.00000000	    -26.48014318	  -1542.13922087	  -2627.35647825	    147.07125065	   -115.85721226	   1091.67017936	      5.65573173	     19.20692981	      8.68857529	     15.66566046	     37.89339962	    -39.38447234	    -45.00000000	    -45.00000000	   2246.09453145	  -4246.69734428	     24.57804427	    -36.16012315	    730.31636003	     -1.46127115	      6.82192330	    -20.18857721
     10.97000000	    -38.23793900	     -5.49340507	     14.22326871	   -217.03294786	    845.17001058	      6.28277893	      5.52898590	    -45.00000000	     39.56207878	    -45.00000000	    -26.83872325	  -1542.20682864	  -2627.25588364	    147.10294008	   -115.83396929	   1091.76462555	      5.69571369	     19.24120474	      8.53646091	     15.55188933	     37.94237980	    -39.23155483	    -45.00000000	    -45.00000000	   2246.24529588	  -4246.63191434	     24.48279721	    -36.60713136	    730.48736527	     -1.21617076	      6.76530682	    -20.22134510
     10.98000000	    -38.28697026	     -5.42194514	     14.18434986	   -218.85959016	    845.97051401	      6.33422365	      5.70905403	    -45.00000000	     39.29071515	    -45.00000000	    -27.59123687	  -1542.30031035	  -2627.30462111	    146.93153414	   -115.69472719	   1091.58565736	      5.85893049	     19.20811821	      8.19435995	     15.54628681	     37.71328146	    -39.09848966	    -45.00000000	    -45.00000000	   2246.12471420	  -4246.49953045	     24.34171854	    -36.24798920	    730.32746844	     -0.97699803	      6.62690927	    -20.16155309
     10.99000000	    -38.26868530	     -5.42205198	     14.13280231	   -220.64796183	    846.71221872	      6.39148484	      5.68360148	    -45.00000000	     39.25013291	    -45.00000000	    -27.94391950	  -1542.37862018	  -2627.16033441	    146.96878278	   -115.66179374	   1091.67945393	      6.09301934	     19.23799234	      8.07646944	     15.45788297	     37.77813139	    -38.94966150	    -45.00000000	    -45.00000000	   2246.27971573	  -4246.55807726	     24.34742531	    -36.90391495	    730.30038036	     -0.56562111	      6.42094324	    -20.15560260
     11.00000000	    -38.31648302	     -5.42048292	     14.10933048	   -222.39387117	    847.39606813	      6.45536531	      5.78794228	    -45.00000000	     39.08484616	    -45.00000000	    -28.51251855	  -1542.47572797	  -2627.17904437	    146.91195573	   -115.60158886	   1091.66356998	      6.42196369	     19.22937912	      7.81986338	     15.40962426	     37.67283355	    -38.81783017	    -45.00000000	    -45.00000000	   2246.29990358	  -4246.50403785	     24.20781101	    -36.95766181	    730.32918505	     -0.15572748	      6.26417239	    -20.14562673
     11.01000000	    -38.32493172	     -5.37843102	     14.07100833	   -224.09626116	    848.02474357	      6.52589333	      5.57045703	    -45.00000000	     39.14767501	    -45.00000000	    -28.47112417	  -1542.51250165	  -2626.99648418	    147.26100642	   -115.87326044	   1091.83884995	      6.69098171	     19.27159235	      7.61964175	     15.09117788	     38.15995720	    -38.83889961	    -45.00000000	    -45.00000000	   2246.37284694	  -4246.32795146	     23.84157605	    -38.08471025	    730.62729186	      0.41985038	      6.42167637	    -20.22860152
     11.02000000	    -38.31163223	     -5.39035966	     13.97089938	   -225.75784884	    848.60257943	      6.60254151	      5.72762395	    -45.00000000	     38.93513693	    -45.00000000	    -29.33137644	  -1542.57761869	  -2626.96379743	    146.94473830	   -115.59599635	   1091.80189478	      7.10215921	     19.24894615	      7.40612390	     15.23052872	     37.76298341	    -38.48461889	    -45.00000000	    -45.00000000	   2246.39756069	  -4246.43959008	     24.07769056	    -37.62263938	    730.42139167	      0.79005728	      6.07678801	    -20.14554991
     11.03000000	    -38.34972098	     -5.40670166	     13.97828659	   -227.37675420	    849.13286593	      6.68412276	      5.85871995	    -45.00000000	     38.81512366	    -45.00000000	    -29.88831703	  -1542.69057304	  -2627.00032832	    146.89309417	   -115.56037261	   1091.74308903	      7.56413181	     19.21532342	      7.22951120	     15.18699108	     37.64011352	    -38.41978639	    -45.00000000	    -45.00000000	   2246.48975620	  -4246.44554617	     23.98862165	    -37.76906150	    730.39848393	      1.32839890	      5.82880702	    -20.12718925
     11.04000000	    -38.35335873	     -5.40298761	     13.92742014	   -228.95486060	    849.62072729	      6.76945081	      5.90698804	    -45.00000000	     38.71868561	    -45.00000000	    -30.37266784	  -1542.76083806	  -2626.93603171	    146.84474220	   -115.57044255	   1091.75377701	      8.04429086	     19.20005195	      7.02272554	     15.12337412	     37.62951366	    -38.27329357	    -45.00000000	    -45.00000000	   2246.51914643	  -4246.43029696	     23.93297062	    -38.06405246	    730.39646583	      1.92782701	      5.66264234	    -20.11327971
     11.05000000	    -38.36575858	     -5.41333929	     13.91738227	   -230.48964050	    850.07047741	      6.85707163	      5.97601433	    -45.00000000	     38.60161614	    -45.00000000	    -30.89880646	  -1542.84669780	  -2626.94759335	    146.83167601	   -115.56842355	   1091.76098402	      8.56910249	     19.17851288	      6.80885013	     15.07965393	     37.56528131	    -38.13023002	    -45.00000000	    -45.00000000	   2246.53415038	  -4246.44352200	     23.85450663	    -38.18488628	    730.42019945	      2.53177266	      5.49651129	    -20.10058335
     11.06000000	    -38.38506647	     -5.43729164	     13.88107520	   -231.97886546	    850.48667527	      6.94538424	      6.01952403	    -45.00000000	     38.50859490	    -45.00000000	    -31.36357919	  -1542.90977406	  -2626.89408909	    146.79168900	   -115.62435553	   1091.78135178	      9.10603157	     19.15755982	      6.58019509	     15.00973386	     37.56661992	    -38.01181985	    -45.00000000	    -45.00000000	   2246.56497233	  -4246.38705228	     23.74785825	    -38.39763530	    730.46212324	      3.15887522	      5.38845401	    -20.09834313
     11.07000000	    -38.38863965	     -5.47168655	     13.85660225	   -233.41705883	    850.87272226	      7.03248966	      6.07979436	    -45.00000000	     38.40058479	    -45.00000000	    -31.84106225	  -1542.96774404	  -2626.90139882	    146.75394789	   -115.64876439	   1091.81724111	      9.68372142	     19.13889297	      6.37984186	     14.96558935	     37.52263724	    -37.86431050	    -45.00000000	    -45.00000000	   2246.60426763	  -4246.40504493	     23.68532191	    -38.57305118	    730.47137476	      3.77012995	      5.23675584	    -20.08043608
     11.08000000	    -38.40886399	     -5.46342060	     13.79779155	   -234.80757143	    851.23329559	      7.11678546	      6.00853966	    -45.00000000	     38.35432268	    -45.00000000	    -32.13808878	  -1543.02720356	  -2626.78059939	    146.80981256	   -115.71499720	   1091.89537689	     10.19723605	     19.13227626	      6.15559783	     14.82331891	     37.66004241	    -37.78859943	    -45.00000000	    -45.00000000	   2246.64286442	  -4246.33310416	     23.55698014	    -38.94980400	    730.63240553	      4.31870825	      5.20606218	    -20.11003828
     11.09000000	    -38.44943547	     -5.49386202	     13.84148275	   -236.14257770	    851.56877925	      7.19591726	      6.12147600	    -45.00000000	     38.22457219	    -45.00000000	    -32.68136305	  -1543.12022806	  -2626.83387588	    146.76677495	   -115.68041160	   1091.85150475	     10.81033315	     19.08860649	      5.96057850	     14.83502714	     37.52583559	    -37.64461767	    -45.00000000	    -45.00000000	   2246.66714379	  -4246.35057122	     23.55860871	    -38.94622531	    730.51008395	      4.81615032	      5.02995214	    -20.04792307
     11.10000000	    -38.48098026	     -5.48159538	     13.84410676	   -237.42632253	    851.88169378	      7.26828008	      6.04567006	    -45.00000000	     38.17765021	    -45.00000000	    -32.88471192	  -1543.18931953	  -2626.74669945	    146.88447380	   -115.81472018	   1091.93626576	     11.34989502	     19.07438007	      5.71270658	     14.65420919	     37.74907077	    -37.61159470	    -45.00000000	    -45.00000000	   2246.65196001	  -4246.25349343	     23.34578279	    -39.42938389	    730.71111690	      5.29960706	      5.06071154	    -20.09169869
     11.11000000	    -38.51936556	     -5.42436935	     13.78950377	   -238.65808808	    852.17269148	      7.33259631	      6.08384158	    -45.00000000	     38.00149205	    -45.00000000	    -33.26307000	  -1543.25000518	  -2626.86616737	    146.86214543	   -115.77982069	   1091.91333221	     11.92002647	     19.02310967	      5.44851629	     14.54863376	     37.78402116	    -37.51905633	    -45.00000000	    -45.00000000	   2246.51952906	  -4246.15975833	     23.21124240	    -39.56041974	    730.64133085	      5.67493200	      5.02064035	    -20.05256784
     11.12000000	    -38.51248889	     -5.48693974	     13.75195148	   -239.83950248	    852.44252312	      7.38842983	      6.16819378	    -45.00000000	     37.91038041	    -45.00000000	    -33.78126687	  -1543.30990000	  -2626.77818330	    146.72584760	   -115.69750413	   1091.94484264	     12.55606771	     19.00403724	      5.29586043	     14.59054555	     37.61030668	    -37.35814386	    -45.00000000	    -45.00000000	   2246.65855740	  -4246.26544652	     23.27741211	    -39.53097393	    730.68828152	      5.97689118	      4.85926307	    -20.01666627
